<?xml version="1.0" encoding="UTF-8" standalone="no"?>
<svg
   version="1.1"
   id="svg2"
   width="75"
   height="50.000252"
   viewBox="0 0 75 50.000252"
   sodipodi:docname="SystemFunctionPkg.svg"
   inkscape:version="1.1.1 (3bf5ae0d25, 2021-09-20)"
   xmlns:inkscape="http://www.inkscape.org/namespaces/inkscape"
   xmlns:sodipodi="http://sodipodi.sourceforge.net/DTD/sodipodi-0.dtd"
   xmlns:xlink="http://www.w3.org/1999/xlink"
   xmlns="http://www.w3.org/2000/svg"
   xmlns:svg="http://www.w3.org/2000/svg"
   xmlns:rdf="http://www.w3.org/1999/02/22-rdf-syntax-ns#"
   xmlns:cc="http://creativecommons.org/ns#"
   xmlns:dc="http://purl.org/dc/elements/1.1/">
  <metadata
     id="metadata8">
    <rdf:RDF>
      <cc:Work
         rdf:about="">
        <dc:format>image/svg+xml</dc:format>
        <dc:type
           rdf:resource="http://purl.org/dc/dcmitype/StillImage" />
      </cc:Work>
    </rdf:RDF>
  </metadata>
  <defs
     id="defs6">
    <linearGradient
       inkscape:collect="always"
       id="linearGradient4204">
      <stop
         style="stop-color:#abbcc8;stop-opacity:1"
         offset="0"
         id="stop4200" />
      <stop
         style="stop-color:#ffffff;stop-opacity:0"
         offset="1"
         id="stop4202" />
    </linearGradient>
    <linearGradient
       inkscape:collect="always"
       id="fill-front-0">
      <stop
         style="stop-color:#abbcc8;stop-opacity:1"
         offset="0"
         id="stop880" />
      <stop
         style="stop-color:#d5dde3;stop-opacity:0.49411765;"
         offset="0.73265988"
         id="stop5254" />
      <stop
         style="stop-color:#ffffff;stop-opacity:0"
         offset="1"
         id="stop882" />
    </linearGradient>
    <linearGradient
       inkscape:collect="always"
       xlink:href="#fill-front-0"
       id="linearGradient894"
       x1="33.777042"
       y1="53.084183"
       x2="33.603844"
       y2="16.63287"
       gradientUnits="userSpaceOnUse"
       gradientTransform="matrix(1.2503413,0,0,1.2089789,-12.259206,-13.967012)" />
    <linearGradient
       inkscape:collect="always"
       xlink:href="#linearGradient4204"
       id="linearGradient896"
       gradientUnits="userSpaceOnUse"
       x1="62.253315"
       y1="59.948338"
       x2="61.922844"
       y2="31.490486"
       gradientTransform="matrix(1.2503413,0,0,1.2181239,-19.890393,-15.915786)" />
  </defs>
  <sodipodi:namedview
     pagecolor="#ffffff"
     bordercolor="#666666"
     borderopacity="1"
     objecttolerance="10"
     gridtolerance="10"
     guidetolerance="10"
     inkscape:pageopacity="0"
     inkscape:pageshadow="2"
     inkscape:window-width="1817"
     inkscape:window-height="1161"
     id="namedview4"
     showgrid="false"
     inkscape:zoom="7.6363636"
     inkscape:cx="15.386905"
     inkscape:cy="1.4404762"
     inkscape:window-x="2032"
     inkscape:window-y="163"
     inkscape:window-maximized="0"
     inkscape:current-layer="layer1"
     fit-margin-top="0"
     fit-margin-left="0"
     fit-margin-right="0"
     fit-margin-bottom="0"
     inkscape:document-rotation="0"
     inkscape:pagecheckerboard="1" />
  <g
     inkscape:groupmode="layer"
     id="layer1"
     inkscape:label="Image 1"
     style="display:inline">
    <path
       id="rect933-3"
       style="display:inline;fill:#ffffff;fill-opacity:1;stroke:#000000;stroke-width:1.22949;stroke-miterlimit:4;stroke-dasharray:none;stroke-opacity:1"
       d="m 5.6851447,0.6044891 c -0.8822921,0 -1.5922309,0.686455 -1.5922309,1.53956 v 4.247955 H 2.2174019 c -0.8822896,0 -1.5922309,0.686456 -1.5922309,1.539559 V 47.856202 c 0,0.853103 0.7099413,1.539559 1.5922309,1.539559 H 56.089528 c 0.88229,0 1.592232,-0.686456 1.592232,-1.539559 V 7.9315631 c 0,-0.853103 -0.709942,-1.539559 -1.592232,-1.539559 H 24.699125 v -4.247955 c 0,-0.853105 -0.70994,-1.53956 -1.592232,-1.53956 z" />
    <path
       style="display:inline;fill:url(#linearGradient894);fill-opacity:1;stroke:none;stroke-width:1.22949;stroke-miterlimit:4;stroke-dasharray:none;stroke-opacity:1"
       d="M 2.2176057,6.3914685 H 56.089673 c 0.88229,0 1.592581,0.6867943 1.592581,1.539897 V 47.857045 c 0,0.853103 -0.710291,1.539897 -1.592581,1.539897 H 2.2176057 c -0.8822896,0 -1.592581,-0.686794 -1.592581,-1.539897 V 7.9313655 c 0,-0.8531027 0.7102914,-1.539897 1.592581,-1.539897 z"
       id="rect14" />
    <path
       id="rect933"
       style="display:inline;fill:none;fill-opacity:1;stroke:#000000;stroke-width:1.22949;stroke-miterlimit:4;stroke-dasharray:none;stroke-opacity:1"
       d="m 5.6851447,0.60448909 c -0.8822921,0 -1.5922309,0.68645461 -1.5922309,1.53955971 V 6.3920041 H 2.2174019 c -0.8822896,0 -1.59223091,0.6864558 -1.59223091,1.5395584 V 47.856202 c 0,0.853103 0.70994131,1.539559 1.59223091,1.539559 H 56.089528 c 0.88229,0 1.592232,-0.686456 1.592232,-1.539559 V 7.9315625 c 0,-0.8531026 -0.709942,-1.5395584 -1.592232,-1.5395584 H 24.699125 V 2.1440488 c 0,-0.8531051 -0.70994,-1.53955971 -1.592232,-1.53955971 z" />
    <rect
       style="display:inline;fill:#ffffff;fill-opacity:1;stroke:#000000;stroke-width:1.31246;stroke-miterlimit:4;stroke-dasharray:none;stroke-opacity:1"
       id="rect14-2-1"
       width="57.232624"
       height="34.334694"
       x="28.021173"
       y="21.954439"
       ry="1.229422"
       transform="matrix(1,0,-0.47947199,0.87755718,0,0)" />
    <rect
       style="display:inline;fill:url(#linearGradient896);fill-opacity:1;stroke:#000000;stroke-width:1.31246;stroke-miterlimit:4;stroke-dasharray:none;stroke-opacity:1"
       id="rect14-2"
       width="57.232624"
       height="34.334694"
       x="28.021164"
       y="21.954439"
       ry="1.229422"
       transform="matrix(1,0,-0.47947199,0.87755718,0,0)" />
  </g>
</svg>
