<?xml version="1.0" encoding="UTF-8" standalone="no"?>
<svg
   width="99.999985"
   height="65"
   viewBox="0 0 26.458329 17.197917"
   version="1.1"
   id="svg8"
   xmlns="http://www.w3.org/2000/svg"
   xmlns:svg="http://www.w3.org/2000/svg"
   xmlns:rdf="http://www.w3.org/1999/02/22-rdf-syntax-ns#"
   xmlns:cc="http://creativecommons.org/ns#"
   xmlns:dc="http://purl.org/dc/elements/1.1/">
  <defs
     id="defs2" />
  <metadata
     id="metadata5">
    <rdf:RDF>
      <cc:Work
         rdf:about="">
        <dc:format>image/svg+xml</dc:format>
        <dc:type
           rdf:resource="http://purl.org/dc/dcmitype/StillImage" />
      </cc:Work>
    </rdf:RDF>
  </metadata>
  <g
     id="layer1"
     transform="translate(-110.97381,-79.008289)">
    <path
       id="rect847"
       style="fill:#a2b5c3;stroke:#000000;stroke-width:0.400079"
       d="M 113.81968,79.208328 H 137.2321 V 96.006166 H 113.81968 Z" />
    <path
       id="rect849"
       style="fill:#a2b5c3;stroke:#000000;stroke-width:0.40837"
       d="m 111.178,81.674644 h 6.20621 v 3.031214 H 111.178 Z" />
    <g
       aria-label="CI"
       id="text853"
       style="font-size:10.5833px;line-height:1.25;stroke-width:0.264583">
      <path
         d="m 129.0677,91.555221 q -0.63906,0.33159 -1.33239,0.500399 -0.69332,0.168809 -1.44693,0.168809 -2.24878,0 -3.56309,-1.254012 -1.3143,-1.260042 -1.3143,-3.412361 0,-2.158349 1.3143,-3.412361 1.31431,-1.260042 3.56309,-1.260042 0.75361,0 1.44693,0.16881 0.69333,0.168809 1.33239,0.500399 v 1.862932 q -0.64509,-0.44011 -1.2721,-0.645093 -0.627,-0.204983 -1.32033,-0.204983 -1.24195,0 -1.95336,0.795816 -0.71141,0.795815 -0.71141,2.194522 0,1.392677 0.71141,2.188493 0.71141,0.795815 1.95336,0.795815 0.69333,0 1.32033,-0.204982 0.62701,-0.204983 1.2721,-0.645093 z"
         style="font-weight:bold;font-size:12.3472px;font-family:'DejaVu Sans';-inkscape-font-specification:'DejaVu Sans Bold'"
         id="path14" />
      <path
         d="m 130.99092,83.048434 h 2.32113 v 9.001157 h -2.32113 z"
         style="font-weight:bold;font-size:12.3472px;font-family:'DejaVu Sans';-inkscape-font-specification:'DejaVu Sans Bold'"
         id="path16" />
    </g>
    <path
       id="rect849-9"
       style="fill:#a2b5c3;stroke:#000000;stroke-width:0.40837"
       d="m 111.17799,85.680176 h 6.20622 v 3.031213 h -6.20622 z" />
  </g>
</svg>
