<?xml version="1.0" encoding="UTF-8" standalone="no"?>
<svg
   width="95"
   height="64.000076"
   viewBox="0 0 25.135416 16.933353"
   version="1.1"
   id="svg8"
   xmlns:xlink="http://www.w3.org/1999/xlink"
   xmlns="http://www.w3.org/2000/svg"
   xmlns:svg="http://www.w3.org/2000/svg"
   xmlns:rdf="http://www.w3.org/1999/02/22-rdf-syntax-ns#"
   xmlns:cc="http://creativecommons.org/ns#"
   xmlns:dc="http://purl.org/dc/elements/1.1/">
  <defs
     id="defs2">
    <linearGradient
       id="gradient">
      <stop
         style="stop-color:#67bc53;stop-opacity:1"
         offset="0"
         id="stop1001" />
      <stop
         style="stop-color:#e3f2e0;stop-opacity:1"
         offset="0.91565436"
         id="stop1009" />
      <stop
         style="stop-color:#fffdfb;stop-opacity:1"
         offset="1"
         id="stop1003" />
    </linearGradient>
    <linearGradient
       xlink:href="#gradient"
       id="linearGradient1007"
       x1="39.687496"
       y1="33.866665"
       x2="66.145828"
       y2="33.866665"
       gradientUnits="userSpaceOnUse"
       gradientTransform="matrix(0.44999785,0,0,0.44999785,35.057402,23.283415)" />
    <linearGradient
       xlink:href="#gradient"
       id="linearGradient2492"
       gradientUnits="userSpaceOnUse"
       gradientTransform="matrix(0.44999785,0,0,0.44999785,21.828237,13.970081)"
       x1="39.687496"
       y1="33.866665"
       x2="66.145828"
       y2="33.866665" />
  </defs>
  <metadata
     id="metadata5">
    <rdf:RDF>
      <cc:Work
         rdf:about="">
        <dc:format>image/svg+xml</dc:format>
        <dc:type
           rdf:resource="http://purl.org/dc/dcmitype/StillImage" />
      </cc:Work>
    </rdf:RDF>
  </metadata>
  <g
     id="layer1"
     transform="translate(-39.687499,-25.399998)">
    <g
       id="g5723">
      <g
         aria-label="FC"
         transform="scale(1.1952286,0.83666003)"
         id="text851"
         style="font-weight:bold;font-size:26.0964px;line-height:1.25;-inkscape-font-specification:'sans-serif Bold';stroke-width:0.130482">
        <path
           d="m 44.771354,35.283172 h 3.089163 v 0.865204 h -1.944478 v 0.826552 h 1.828523 v 0.865203 h -1.828523 v 1.882041 h -1.144685 z"
           style="font-size:6.08913px;font-family:'DejaVu Sans';-inkscape-font-specification:'DejaVu Sans Bold'"
           id="path19" />
        <path
           d="m 52.45115,39.478369 q -0.31516,0.163526 -0.657079,0.246776 -0.341919,0.08325 -0.71357,0.08325 -1.109006,0 -1.757166,-0.618427 -0.648159,-0.621401 -0.648159,-1.682836 0,-1.064409 0.648159,-1.682836 0.64816,-0.6214 1.757166,-0.6214 0.371651,0 0.71357,0.08325 0.341919,0.08325 0.657079,0.246777 v 0.918721 q -0.318133,-0.217044 -0.627347,-0.318133 -0.309214,-0.101089 -0.651132,-0.101089 -0.612481,0 -0.96332,0.392463 -0.350838,0.392464 -0.350838,1.082248 0,0.686811 0.350838,1.079274 0.350839,0.392464 0.96332,0.392464 0.341918,0 0.651132,-0.101089 0.309214,-0.101089 0.627347,-0.318134 z"
           style="font-size:6.08913px;font-family:'DejaVu Sans';-inkscape-font-specification:'DejaVu Sans Bold'"
           id="path21" />
      </g>
      <path
         stroke="#563b18"
         stroke-width="0.252653"
         d="m 64.73359,38.52353 c 0,2.054789 -2.625235,3.720498 -5.863513,3.720498 -3.239044,0 -5.864088,-1.666459 -5.864088,-3.720498 0,-2.055164 2.625044,-3.720873 5.864088,-3.720873 3.23847,-1.92e-4 5.863513,1.665336 5.863513,3.720873 z"
         id="path37"
         style="fill:url(#linearGradient1007);fill-opacity:1;stroke:#000000;stroke-width:0.178649;stroke-miterlimit:4;stroke-dasharray:none;stroke-opacity:1" />
      <path
         stroke="#563b18"
         stroke-width="0.252653"
         d="m 51.504424,29.210196 c 0,2.05479 -2.625235,3.720498 -5.863514,3.720498 -3.239043,0 -5.864087,-1.666459 -5.864087,-3.720498 0,-2.055163 2.625044,-3.720873 5.864087,-3.720873 3.23847,-1.92e-4 5.863514,1.665336 5.863514,3.720873 z"
         id="path37-5"
         style="fill:url(#linearGradient2492);fill-opacity:1;stroke:#000000;stroke-width:0.178649;stroke-miterlimit:4;stroke-dasharray:none;stroke-opacity:1" />
      <path
         style="fill:none;stroke:#000000;stroke-width:0.170276;stroke-linecap:butt;stroke-linejoin:miter;stroke-miterlimit:4;stroke-dasharray:none;stroke-opacity:1"
         d="m 49.316202,32.199629 4.494933,4.575832"
         id="path2723" />
    </g>
  </g>
</svg>
