<?xml version="1.0" encoding="UTF-8" standalone="no"?>
<svg
   width="99.999985"
   height="65"
   viewBox="0 0 26.458329 17.197917"
   version="1.1"
   id="svg8"
   xmlns="http://www.w3.org/2000/svg"
   xmlns:svg="http://www.w3.org/2000/svg"
   xmlns:rdf="http://www.w3.org/1999/02/22-rdf-syntax-ns#"
   xmlns:cc="http://creativecommons.org/ns#"
   xmlns:dc="http://purl.org/dc/elements/1.1/">
  <defs
     id="defs2" />
  <metadata
     id="metadata5">
    <rdf:RDF>
      <cc:Work
         rdf:about="">
        <dc:format>image/svg+xml</dc:format>
        <dc:type
           rdf:resource="http://purl.org/dc/dcmitype/StillImage" />
        <dc:title />
      </cc:Work>
    </rdf:RDF>
  </metadata>
  <g
     id="layer1"
     transform="translate(-110.97381,-79.008289)">
    <path
       id="rect847"
       style="fill:#a2b5c3;stroke:#000000;stroke-width:0.400079"
       d="M 113.81968,79.208328 H 137.2321 V 96.006166 H 113.81968 Z" />
    <path
       id="rect849"
       style="fill:#e3ebf8;stroke:#000000;stroke-width:0.40837"
       d="m 111.178,81.674644 h 6.20621 v 3.031214 H 111.178 Z" />
    <g
       aria-label="OE"
       id="text853"
       style="font-size:10.5833px;line-height:1.25;stroke-width:0.264583">
      <path
         d="m 122.86621,84.567718 q -1.06109,0 -1.64589,0.783758 -0.5848,0.783758 -0.5848,2.20658 0,1.416793 0.5848,2.200551 0.5848,0.783757 1.64589,0.783757 1.06712,0 1.65192,-0.783757 0.58481,-0.783758 0.58481,-2.200551 0,-1.422822 -0.58481,-2.20658 -0.5848,-0.783758 -1.65192,-0.783758 z m 0,-1.682065 q 2.17041,0 3.40031,1.241955 1.22989,1.241955 1.22989,3.430448 0,2.182464 -1.22989,3.424419 -1.2299,1.241954 -3.40031,1.241954 -2.16438,0 -3.4003,-1.241954 -1.2299,-1.241955 -1.2299,-3.424419 0,-2.188493 1.2299,-3.430448 1.23592,-1.241955 3.4003,-1.241955 z"
         style="font-weight:bold;font-size:12.3472px;font-family:'DejaVu Sans';-inkscape-font-specification:'DejaVu Sans Bold'"
         id="path14" />
      <path
         d="m 129.25082,83.048434 h 6.26404 v 1.754412 h -3.94291 v 1.676036 h 3.70778 v 1.754411 h -3.70778 v 2.061886 h 4.07554 v 1.754412 h -6.39667 z"
         style="font-weight:bold;font-size:12.3472px;font-family:'DejaVu Sans';-inkscape-font-specification:'DejaVu Sans Bold'"
         id="path16" />
    </g>
    <path
       id="rect849-9"
       style="fill:#e3ebf8;stroke:#000000;stroke-width:0.40837"
       d="m 111.17799,85.680176 h 6.20622 v 3.031213 h -6.20622 z" />
  </g>
</svg>
