<?xml version="1.0" encoding="UTF-8" standalone="no"?>
<svg
   width="100"
   height="64"
   viewBox="0 0 26.458333 16.933333"
   version="1.1"
   id="svg8"
   xmlns:xlink="http://www.w3.org/1999/xlink"
   xmlns="http://www.w3.org/2000/svg"
   xmlns:svg="http://www.w3.org/2000/svg"
   xmlns:rdf="http://www.w3.org/1999/02/22-rdf-syntax-ns#"
   xmlns:cc="http://creativecommons.org/ns#"
   xmlns:dc="http://purl.org/dc/elements/1.1/">
  <defs
     id="defs2">
    <linearGradient
       id="gradient">
      <stop
         style="stop-color:#ff8c07;stop-opacity:1;"
         offset="0"
         id="stop1001" />
      <stop
         style="stop-color:#ffecd6;stop-opacity:1;"
         offset="0.91565436"
         id="stop1009" />
      <stop
         style="stop-color:#fffdfb;stop-opacity:1"
         offset="1"
         id="stop1003" />
    </linearGradient>
    <linearGradient
       xlink:href="#gradient"
       id="linearGradient1007"
       x1="39.687498"
       y1="33.866665"
       x2="66.145831"
       y2="33.866665"
       gradientUnits="userSpaceOnUse" />
  </defs>
  <metadata
     id="metadata5">
    <rdf:RDF>
      <cc:Work
         rdf:about="">
        <dc:format>image/svg+xml</dc:format>
        <dc:type
           rdf:resource="http://purl.org/dc/dcmitype/StillImage" />
        <dc:title />
      </cc:Work>
    </rdf:RDF>
  </metadata>
  <g
     id="layer1"
     transform="translate(-39.687498,-25.399999)">
    <path
       stroke="#563b18"
       stroke-width="0.252653"
       d="m 65.947394,33.867082 c 0,4.566219 -5.833884,8.267813 -13.030093,8.267813 -7.197908,0 -13.031366,-3.703261 -13.031366,-8.267813 0,-4.567051 5.833458,-8.268646 13.031366,-8.268646 7.196635,-4.26e-4 13.030093,3.700763 13.030093,8.268646 z"
       id="path37"
       style="fill:url(#linearGradient1007);fill-opacity:1;stroke:#563b18;stroke-width:0.396875;stroke-miterlimit:4;stroke-dasharray:none;stroke-opacity:1" />
    <g
       aria-label="OA"
       transform="scale(1.1952286,0.83666003)"
       id="text851"
       style="font-weight:bold;font-size:44.2733px;line-height:1.25;-inkscape-font-specification:'sans-serif Bold';stroke-width:0.221366">
      <path
         d="m 40.179937,37.98408 q -0.887769,0 -1.37705,0.655738 -0.489282,0.655738 -0.489282,1.846155 0,1.185374 0.489282,1.841112 0.489281,0.655738 1.37705,0.655738 0.892813,0 1.382095,-0.655738 0.489281,-0.655738 0.489281,-1.841112 0,-1.190417 -0.489281,-1.846155 Q 41.07275,37.98408 40.179937,37.98408 Z m 0,-1.407316 q 1.815891,0 2.844895,1.039093 1.029005,1.039093 1.029005,2.870116 0,1.825979 -1.029005,2.865072 -1.029004,1.039093 -2.844895,1.039093 -1.810847,0 -2.844895,-1.039093 -1.029005,-1.039093 -1.029005,-2.865072 0,-1.831023 1.029005,-2.870116 1.034048,-1.039093 2.844895,-1.039093 z"
         style="font-size:10.3304px;font-family:'DejaVu Sans';-inkscape-font-specification:'DejaVu Sans Bold'"
         id="path15" />
      <path
         d="m 49.814246,42.871852 h -3.036573 l -0.479193,1.372006 h -1.952083 l 2.78941,-7.530902 h 2.315261 l 2.78941,7.530902 H 50.288395 Z M 47.26191,41.474625 h 2.063054 l -1.029005,-2.99622 z"
         style="font-size:10.3304px;font-family:'DejaVu Sans';-inkscape-font-specification:'DejaVu Sans Bold'"
         id="path17" />
    </g>
  </g>
</svg>
