<?xml version="1.0" encoding="UTF-8" standalone="no"?>
<svg
   width="99.999985"
   height="65"
   viewBox="0 0 26.458329 17.197917"
   version="1.1"
   id="svg8"
   xmlns="http://www.w3.org/2000/svg"
   xmlns:svg="http://www.w3.org/2000/svg"
   xmlns:rdf="http://www.w3.org/1999/02/22-rdf-syntax-ns#"
   xmlns:cc="http://creativecommons.org/ns#"
   xmlns:dc="http://purl.org/dc/elements/1.1/">
  <defs
     id="defs2" />
  <metadata
     id="metadata5">
    <rdf:RDF>
      <cc:Work
         rdf:about="">
        <dc:format>image/svg+xml</dc:format>
        <dc:type
           rdf:resource="http://purl.org/dc/dcmitype/StillImage" />
      </cc:Work>
    </rdf:RDF>
  </metadata>
  <g
     id="layer1"
     transform="translate(-110.97381,-79.008289)">
    <path
       id="rect847"
       style="fill:#a2b5c3;stroke:#000000;stroke-width:0.400079"
       d="M 113.81968,79.208328 H 137.2321 V 96.006166 H 113.81968 Z" />
    <path
       id="rect849"
       style="fill:#a2b5c3;stroke:#000000;stroke-width:0.40837"
       d="m 111.178,81.674644 h 6.20621 v 3.031214 H 111.178 Z" />
    <g
       aria-label="P"
       id="text853"
       style="font-size:10.5833px;line-height:1.25;stroke-width:0.264583">
      <path
         d="m 124.04612,83.048434 h 3.85247 q 1.71824,0 2.63464,0.765671 0.92242,0.759642 0.92242,2.170406 0,1.416793 -0.92242,2.182464 -0.9164,0.759643 -2.63464,0.759643 h -1.53134 v 3.122973 h -2.32113 z m 2.32113,1.682065 v 2.514054 h 1.28416 q 0.67524,0 1.043,-0.325561 0.36776,-0.33159 0.36776,-0.934481 0,-0.60289 -0.36776,-0.928451 -0.36776,-0.325561 -1.043,-0.325561 z"
         style="font-weight:bold;font-size:12.3472px;font-family:'DejaVu Sans';-inkscape-font-specification:'DejaVu Sans Bold'"
         id="path14" />
    </g>
    <path
       id="rect849-9"
       style="fill:#a2b5c3;stroke:#000000;stroke-width:0.40837"
       d="m 111.17799,85.680176 h 6.20622 v 3.031213 h -6.20622 z" />
  </g>
</svg>
