<?xml version="1.0" encoding="UTF-8" standalone="no"?>
<!-- Created with Inkscape (http://www.inkscape.org/) -->

<svg
   width="75"
   height="75"
   viewBox="0 0 19.84375 19.84375"
   version="1.1"
   id="svg61685"
   xmlns="http://www.w3.org/2000/svg"
   xmlns:svg="http://www.w3.org/2000/svg">
  <defs
     id="defs61682" />
  <g
     id="layer1">
    <path
       id="path61791"
       style="fill:#750075;stroke-width:0.386098;paint-order:markers fill stroke"
       d="M 19.650701,9.921875 A 9.7288256,9.7288256 0 0 1 9.921875,19.650701 9.7288256,9.7288256 0 0 1 0.19304943,9.921875 9.7288256,9.7288256 0 0 1 9.921875,0.19304943 9.7288256,9.7288256 0 0 1 19.650701,9.921875 Z" />
    <g
       aria-label="R"
       transform="scale(1.2247449,0.81649657)"
       id="text64843"
       style="font-size:19.4428px;line-height:1.25;stroke-width:0.324047">
      <path
         d="m 9.0462713,11.203702 q 1.1487197,0 1.6423847,-0.42721 0.503159,-0.42721 0.503159,-1.4050463 0,-0.9683426 -0.503159,-1.3860591 Q 10.194991,7.5676702 9.0462713,7.5676702 H 7.5083154 v 3.6360318 z m -1.5379559,2.525285 v 5.363859 H 3.8532967 V 4.9189684 H 9.435507 q 2.800599,0 4.101216,0.9398619 1.31011,0.939862 1.31011,2.9714827 0,1.405046 -0.683536,2.306934 -0.674042,0.901888 -2.041114,1.329098 0.749991,0.170884 1.338591,0.778471 0.598094,0.598094 1.205682,1.822763 l 1.984153,4.025267 H 12.758251 L 11.030424,15.570737 Q 10.508279,14.507459 9.9671461,14.118223 9.435507,13.728987 8.5431129,13.728987 Z"
         style="font-weight:bold;font-family:'Noto Sans Mono';-inkscape-font-specification:'Noto Sans Mono Bold';fill:#ffffff"
         id="path10" />
    </g>
  </g>
</svg>
