<?xml version="1.0" encoding="UTF-8" standalone="no"?>
<!-- Created with Inkscape (http://www.inkscape.org/) -->

<svg
   width="75"
   height="75"
   viewBox="0 0 19.84375 19.84375"
   version="1.1"
   id="svg61685"
   xmlns="http://www.w3.org/2000/svg"
   xmlns:svg="http://www.w3.org/2000/svg">
  <defs
     id="defs61682" />
  <g
     id="layer1">
    <path
       id="path61791"
       style="fill:#750075;stroke-width:0.386098;paint-order:markers fill stroke"
       d="M 19.650701,9.921875 A 9.7288256,9.7288256 0 0 1 9.921875,19.650701 9.7288256,9.7288256 0 0 1 0.19304943,9.921875 9.7288256,9.7288256 0 0 1 9.921875,0.19304943 9.7288256,9.7288256 0 0 1 19.650701,9.921875 Z" />
    <g
       aria-label="R"
       transform="scale(1.2247449,0.81649657)"
       id="text64843"
       style="font-size:19.4428px;line-height:1.25;stroke-width:0.324047">
      <path
         d="M 3.6239324,19.092846 V 5.2106863 h 3.7135749 q 2.4692357,0 3.7524607,1.1082397 1.302667,1.1082396 1.302667,3.0719625 0,1.4193245 -0.641612,2.3720215 -0.62217,0.933255 -1.710966,1.45821 l 3.40249,5.871726 H 10.448355 L 7.5513781,13.862733 H 6.4431385 v 5.230113 z m 3.6552465,-7.621578 q 2.2748077,0 2.2748077,-2.0220511 0,-1.0304685 -0.6027268,-1.4387673 Q 8.3679758,7.6021508 7.2208505,7.6021508 h -0.777712 v 3.8691172 z"
         style="font-weight:bold;font-family:'Noto Sans Mono';-inkscape-font-specification:'Noto Sans Mono Bold';fill:#ffffff"
         id="path10" />
    </g>
  </g>
</svg>
