<?xml version="1.0" encoding="UTF-8" standalone="no"?>
<svg
   width="100"
   height="64"
   viewBox="0 0 26.458333 16.933333"
   version="1.1"
   id="svg8"
   xmlns:xlink="http://www.w3.org/1999/xlink"
   xmlns="http://www.w3.org/2000/svg"
   xmlns:svg="http://www.w3.org/2000/svg"
   xmlns:rdf="http://www.w3.org/1999/02/22-rdf-syntax-ns#"
   xmlns:cc="http://creativecommons.org/ns#"
   xmlns:dc="http://purl.org/dc/elements/1.1/">
  <defs
     id="defs2">
    <linearGradient
       id="gradient">
      <stop
         style="stop-color:#67bc53;stop-opacity:1"
         offset="0"
         id="stop1001" />
      <stop
         style="stop-color:#e3f2e0;stop-opacity:1"
         offset="0.91565436"
         id="stop1009" />
      <stop
         style="stop-color:#fffdfb;stop-opacity:1"
         offset="1"
         id="stop1003" />
    </linearGradient>
    <linearGradient
       xlink:href="#gradient"
       id="linearGradient1007"
       x1="39.687498"
       y1="33.866665"
       x2="66.145831"
       y2="33.866665"
       gradientUnits="userSpaceOnUse" />
  </defs>
  <metadata
     id="metadata5">
    <rdf:RDF>
      <cc:Work
         rdf:about="">
        <dc:format>image/svg+xml</dc:format>
        <dc:type
           rdf:resource="http://purl.org/dc/dcmitype/StillImage" />
        <dc:title />
      </cc:Work>
    </rdf:RDF>
  </metadata>
  <g
     id="layer1"
     transform="translate(-39.687498,-25.399999)">
    <path
       stroke="#563b18"
       stroke-width="0.252653"
       d="m 65.947394,33.867082 c 0,4.566219 -5.833884,8.267813 -13.030093,8.267813 -7.197908,0 -13.031366,-3.703261 -13.031366,-8.267813 0,-4.567051 5.833458,-8.268646 13.031366,-8.268646 7.196635,-4.26e-4 13.030093,3.700763 13.030093,8.268646 z"
       id="path37"
       style="fill:url(#linearGradient1007);fill-opacity:1;stroke:#000000;stroke-width:0.397;stroke-miterlimit:4;stroke-dasharray:none;stroke-opacity:1" />
    <g
       aria-label="SF"
       transform="scale(1.1952286,0.83666003)"
       id="text851"
       style="font-weight:bold;font-size:44.2733px;line-height:1.25;-inkscape-font-specification:'sans-serif Bold';stroke-width:0.221366">
      <path
         d="m 43.27704,36.944988 v 1.593948 q -0.620429,-0.277428 -1.210594,-0.418664 -0.590164,-0.141235 -1.114755,-0.141235 -0.696091,0 -1.029005,0.191677 -0.332913,0.191677 -0.332913,0.595208 0,0.302649 0.221942,0.47415 0.226987,0.166456 0.817151,0.287516 l 0.827239,0.166456 q 1.255991,0.252207 1.785626,0.76671 0.529635,0.514502 0.529635,1.462801 0,1.245902 -0.741489,1.856243 -0.736444,0.605297 -2.254731,0.605297 -0.716268,0 -1.43758,-0.136191 -0.721312,-0.136192 -1.442624,-0.403532 v -1.639345 q 0.721312,0.383354 1.392183,0.580076 0.675914,0.191677 1.301388,0.191677 0.635562,0 0.973519,-0.211854 0.337958,-0.211854 0.337958,-0.605297 0,-0.35309 -0.232031,-0.544767 -0.226986,-0.191677 -0.912989,-0.343002 l -0.751577,-0.166456 q -1.129888,-0.242119 -1.654479,-0.771754 -0.519546,-0.529635 -0.519546,-1.427492 0,-1.124843 0.726356,-1.73014 0.726356,-0.605297 2.088274,-0.605297 0.62043,0 1.276168,0.09584 0.655738,0.09079 1.356874,0.277428 z"
         style="font-size:10.3304px;font-family:'DejaVu Sans';-inkscape-font-specification:'DejaVu Sans Bold'"
         id="path15" />
      <path
         d="m 45.476285,36.707913 h 5.240863 v 1.467845 H 47.41828 v 1.402271 h 3.102146 v 1.467845 H 47.41828 v 3.192941 h -1.941995 z"
         style="font-size:10.3304px;font-family:'DejaVu Sans';-inkscape-font-specification:'DejaVu Sans Bold'"
         id="path17" />
    </g>
  </g>
</svg>
