<?xml version="1.0" encoding="UTF-8" standalone="no"?>
<svg
   width="99.999985"
   height="65"
   viewBox="0 0 26.458329 17.197917"
   version="1.1"
   id="svg8"
   xmlns="http://www.w3.org/2000/svg"
   xmlns:svg="http://www.w3.org/2000/svg"
   xmlns:rdf="http://www.w3.org/1999/02/22-rdf-syntax-ns#"
   xmlns:cc="http://creativecommons.org/ns#"
   xmlns:dc="http://purl.org/dc/elements/1.1/">
  <defs
     id="defs2" />
  <metadata
     id="metadata5">
    <rdf:RDF>
      <cc:Work
         rdf:about="">
        <dc:format>image/svg+xml</dc:format>
        <dc:type
           rdf:resource="http://purl.org/dc/dcmitype/StillImage" />
        <dc:title />
      </cc:Work>
    </rdf:RDF>
  </metadata>
  <g
     id="layer1"
     transform="translate(-110.97381,-79.008289)">
    <path
       id="rect847"
       style="fill:#bdf7ff;stroke:#000000;stroke-width:0.400079"
       d="M 113.81968,79.208328 H 137.2321 V 96.006166 H 113.81968 Z" />
    <path
       id="rect849"
       style="fill:#e3ebf8;stroke:#000000;stroke-width:0.40837"
       d="m 111.178,81.674644 h 6.20621 v 3.031214 H 111.178 Z" />
    <g
       aria-label="SA"
       id="text853"
       style="font-size:10.5833px;line-height:1.25;stroke-width:0.264583">
      <path
         d="m 125.01853,83.331792 v 1.905135 q -0.74155,-0.33159 -1.44694,-0.500399 -0.70538,-0.16881 -1.33238,-0.16881 -0.83199,0 -1.2299,0.229099 -0.39791,0.229098 -0.39791,0.711411 0,0.361734 0.26527,0.566717 0.2713,0.198954 0.97669,0.343647 l 0.98874,0.198954 q 1.50119,0.301446 2.13423,0.916394 0.63303,0.614949 0.63303,1.748383 0,1.48914 -0.88624,2.218638 -0.88023,0.723468 -2.69493,0.723468 -0.8561,0 -1.71823,-0.16278 -0.86214,-0.162781 -1.72427,-0.482313 v -1.959394 q 0.86213,0.458197 1.66398,0.693324 0.80787,0.229098 1.55545,0.229098 0.75965,0 1.16358,-0.253214 0.40394,-0.253214 0.40394,-0.723468 0,-0.422024 -0.27733,-0.651122 -0.2713,-0.229099 -1.09123,-0.409966 l -0.89831,-0.198954 q -1.35047,-0.289387 -1.97748,-0.922423 -0.62098,-0.633035 -0.62098,-1.70618 0,-1.344446 0.86817,-2.067915 0.86816,-0.723469 2.49596,-0.723469 0.74156,0 1.52532,0.114549 0.78375,0.108521 1.62177,0.33159 z"
         style="font-weight:bold;font-size:12.3472px;font-family:'DejaVu Sans';-inkscape-font-specification:'DejaVu Sans Bold'"
         id="path14" />
      <path
         d="m 133.10932,90.409729 h -3.6294 l -0.57274,1.639862 h -2.33319 l 3.33398,-9.001157 h 2.76727 l 3.33399,9.001157 h -2.33319 z m -3.05062,-1.670008 h 2.46582 l -1.2299,-3.58117 z"
         style="font-weight:bold;font-size:12.3472px;font-family:'DejaVu Sans';-inkscape-font-specification:'DejaVu Sans Bold'"
         id="path16" />
    </g>
    <path
       id="rect849-9"
       style="fill:#e3ebf8;stroke:#000000;stroke-width:0.40837"
       d="m 111.17799,85.680176 h 6.20622 v 3.031213 h -6.20622 z" />
  </g>
</svg>
